<?xml version="1.0" encoding="UTF-8" standalone="no"?>
<!-- Created with Inkscape (http://www.inkscape.org/) -->

<svg
   xmlns:dc="http://purl.org/dc/elements/1.1/"
   xmlns:cc="http://creativecommons.org/ns#"
   xmlns:rdf="http://www.w3.org/1999/02/22-rdf-syntax-ns#"
   xmlns:svg="http://www.w3.org/2000/svg"
   xmlns="http://www.w3.org/2000/svg"
   xmlns:sodipodi="http://sodipodi.sourceforge.net/DTD/sodipodi-0.dtd"
   xmlns:inkscape="http://www.inkscape.org/namespaces/inkscape"
   width="16"
   height="16"
   viewBox="0 0 16 16"
   version="1.1"
   id="svg8"
   inkscape:version="0.92.5 (2060ec1f9f, 2020-04-08)"
   sodipodi:docname="loop.svg">
  <defs
     id="defs2" />
  <sodipodi:namedview
     id="base"
     pagecolor="#ffffff"
     bordercolor="#666666"
     borderopacity="1.0"
     inkscape:pageopacity="0.0"
     inkscape:pageshadow="2"
     inkscape:zoom="15.839192"
     inkscape:cx="-6.5240525"
     inkscape:cy="5.0253267"
     inkscape:document-units="px"
     inkscape:current-layer="svg8"
     showgrid="false"
     units="px"
     inkscape:window-width="1920"
     inkscape:window-height="1009"
     inkscape:window-x="-8"
     inkscape:window-y="-8"
     inkscape:window-maximized="1" />
  <metadata
     id="metadata5">
    <rdf:RDF>
      <cc:Work
         rdf:about="">
        <dc:format>image/svg+xml</dc:format>
        <dc:type
           rdf:resource="http://purl.org/dc/dcmitype/StillImage" />
        <dc:title></dc:title>
      </cc:Work>
    </rdf:RDF>
  </metadata>
  <g
     inkscape:label="Layer 1"
     inkscape:groupmode="layer"
     id="layer1"
     transform="translate(0,-292.76665)" />
  <path
     id="path815"
     d="M 0,4.75 A 3.75,3.75 0 0 1 3.75,1 h 8.5 A 3.75,3.75 0 0 1 16,4.75 v 5 A 3.75,3.75 0 0 1 12.25,13.5 H 9.81 l 1.018,1.018 a 0.75,0.75 0 1 1 -1.06,1.06 L 6.939,12.75 9.768,9.922 a 0.75,0.75 0 1 1 1.06,1.06 L 9.811,12 H 12.25 A 2.25,2.25 0 0 0 14.5,9.75 v -5 A 2.25,2.25 0 0 0 12.25,2.5 H 3.75 A 2.25,2.25 0 0 0 1.5,4.75 v 5 A 2.25,2.25 0 0 0 3.75,12 H 5 v 1.5 H 3.75 A 3.75,3.75 0 0 1 0,9.75 Z"
     inkscape:connector-curvature="0" />
</svg>
