<?xml version="1.0" encoding="UTF-8" standalone="no"?>
<!-- Created with Inkscape (http://www.inkscape.org/) -->

<svg
   xmlns:dc="http://purl.org/dc/elements/1.1/"
   xmlns:cc="http://creativecommons.org/ns#"
   xmlns:rdf="http://www.w3.org/1999/02/22-rdf-syntax-ns#"
   xmlns:svg="http://www.w3.org/2000/svg"
   xmlns="http://www.w3.org/2000/svg"
   xmlns:sodipodi="http://sodipodi.sourceforge.net/DTD/sodipodi-0.dtd"
   xmlns:inkscape="http://www.inkscape.org/namespaces/inkscape"
   width="16"
   height="16"
   viewBox="0 0 16 16.000001"
   version="1.1"
   id="svg2506"
   inkscape:version="0.92.5 (2060ec1f9f, 2020-04-08)"
   sodipodi:docname="pause.svg">
  <defs
     id="defs2500" />
  <sodipodi:namedview
     id="base"
     pagecolor="#ffffff"
     bordercolor="#666666"
     borderopacity="1.0"
     inkscape:pageopacity="0.0"
     inkscape:pageshadow="2"
     inkscape:zoom="7.9195959"
     inkscape:cx="-14.158489"
     inkscape:cy="-18.219124"
     inkscape:document-units="px"
     inkscape:current-layer="svg2506"
     showgrid="false"
     units="px"
     inkscape:window-width="1920"
     inkscape:window-height="1009"
     inkscape:window-x="-8"
     inkscape:window-y="-8"
     inkscape:window-maximized="1" />
  <metadata
     id="metadata2503">
    <rdf:RDF>
      <cc:Work
         rdf:about="">
        <dc:format>image/svg+xml</dc:format>
        <dc:type
           rdf:resource="http://purl.org/dc/dcmitype/StillImage" />
        <dc:title></dc:title>
      </cc:Work>
    </rdf:RDF>
  </metadata>
  <g
     inkscape:label="Layer 1"
     inkscape:groupmode="layer"
     id="layer1"
     transform="translate(0,-1106.5197)" />
  <path
     id="path3051"
     d="M 2.7,1 A 0.7,0.7 0 0 0 2,1.7 V 14.3 A 0.7,0.7 0 0 0 2.7,15 H 5.3 A 0.7,0.7 0 0 0 6,14.3 V 1.7 A 0.7,0.7 0 0 0 5.3,1 Z m 8,0 A 0.7,0.7 0 0 0 10,1.7 v 12.6 a 0.7,0.7 0 0 0 0.7,0.7 h 2.6 A 0.7,0.7 0 0 0 14,14.3 V 1.7 A 0.7,0.7 0 0 0 13.3,1 Z"
     inkscape:connector-curvature="0" />
</svg>
