<?xml version="1.0" encoding="UTF-8" standalone="no"?>
<!-- Created with Inkscape (http://www.inkscape.org/) -->

<svg
   xmlns:dc="http://purl.org/dc/elements/1.1/"
   xmlns:cc="http://creativecommons.org/ns#"
   xmlns:rdf="http://www.w3.org/1999/02/22-rdf-syntax-ns#"
   xmlns:svg="http://www.w3.org/2000/svg"
   xmlns="http://www.w3.org/2000/svg"
   xmlns:sodipodi="http://sodipodi.sourceforge.net/DTD/sodipodi-0.dtd"
   xmlns:inkscape="http://www.inkscape.org/namespaces/inkscape"
   width="16"
   height="16"
   viewBox="0 0 16 16.000001"
   version="1.1"
   id="svg1929"
   inkscape:version="0.92.5 (2060ec1f9f, 2020-04-08)"
   sodipodi:docname="shuffle.svg">
  <defs
     id="defs1923" />
  <sodipodi:namedview
     id="base"
     pagecolor="#ffffff"
     bordercolor="#666666"
     borderopacity="1.0"
     inkscape:pageopacity="0.0"
     inkscape:pageshadow="2"
     inkscape:zoom="31.678384"
     inkscape:cx="5.5951021"
     inkscape:cy="5.2867611"
     inkscape:document-units="px"
     inkscape:current-layer="svg1929"
     showgrid="false"
     units="px"
     inkscape:window-width="1920"
     inkscape:window-height="1009"
     inkscape:window-x="-8"
     inkscape:window-y="-8"
     inkscape:window-maximized="1" />
  <metadata
     id="metadata1926">
    <rdf:RDF>
      <cc:Work
         rdf:about="">
        <dc:format>image/svg+xml</dc:format>
        <dc:type
           rdf:resource="http://purl.org/dc/dcmitype/StillImage" />
        <dc:title></dc:title>
      </cc:Work>
    </rdf:RDF>
  </metadata>
  <g
     inkscape:label="Layer 1"
     inkscape:groupmode="layer"
     id="layer1"
     transform="translate(0,-1106.5196)" />
  <path
     id="path2474"
     d="m 13.151,0.922 a 0.75,0.75 0 1 0 -1.06,1.06 L 13.109,3 H 11.16 A 3.75,3.75 0 0 0 8.287,4.34 L 2.114,11.696 A 2.25,2.25 0 0 1 0.39,12.5 H 0 V 14 H 0.391 A 3.75,3.75 0 0 0 3.264,12.66 L 9.437,5.304 A 2.25,2.25 0 0 1 11.161,4.5 h 1.947 l -1.017,1.018 a 0.75,0.75 0 0 0 1.06,1.06 L 15.98,3.75 13.15,0.922 Z M 0.391,3.5 H 0 V 2 H 0.391 C 1.5,2 2.551,2.49 3.264,3.34 L 4.89,5.277 3.911,6.444 2.115,4.304 A 2.25,2.25 0 0 0 0.39,3.5 Z"
     inkscape:connector-curvature="0" />
  <path
     id="path2476"
     d="m 7.5,10.723 0.98,-1.167 0.957,1.14 a 2.25,2.25 0 0 0 1.724,0.804 h 1.947 l -1.017,-1.018 a 0.75,0.75 0 1 1 1.06,-1.06 l 2.829,2.828 -2.829,2.828 a 0.75,0.75 0 1 1 -1.06,-1.06 L 13.109,13 H 11.16 A 3.75,3.75 0 0 1 8.287,11.66 L 7.5,10.722 Z"
     inkscape:connector-curvature="0" />
</svg>
