<svg width="16" height="16" version="1.1" viewBox="0 0 16 16" xmlns="http://www.w3.org/2000/svg">
 <path d="m13.151 0.922a0.75 0.75 0 1 0-1.06 1.06l1.018 1.018h-1.949a3.75 3.75 0 0 0-2.873 1.34l-6.173 7.356a2.25 2.25 0 0 1-1.724 0.804h-0.39v1.5h0.391a3.75 3.75 0 0 0 2.873-1.34l6.173-7.356a2.25 2.25 0 0 1 1.724-0.804h1.947l-1.017 1.018a0.75 0.75 0 0 0 1.06 1.06l2.829-2.828-2.83-2.828zm-12.76 2.578h-0.391v-1.5h0.391c1.109 0 2.16 0.49 2.873 1.34l1.626 1.937-0.979 1.167-1.796-2.14a2.25 2.25 0 0 0-1.725-0.804z"/>
 <path d="m7.5 10.723 0.98-1.167 0.957 1.14a2.25 2.25 0 0 0 1.724 0.804h1.947l-1.017-1.018a0.75 0.75 0 1 1 1.06-1.06l2.829 2.828-2.829 2.828a0.75 0.75 0 1 1-1.06-1.06l1.018-1.018h-1.949a3.75 3.75 0 0 1-2.873-1.34l-0.787-0.938z"/>
</svg>
