<svg width="16" height="16" version="1.1" viewBox="0 0 16 16" xmlns="http://www.w3.org/2000/svg">
 <path d="m0 4.75a3.75 3.75 0 0 1 3.75-3.75h0.75v1.5h-0.75a2.25 2.25 0 0 0-2.25 2.25v5a2.25 2.25 0 0 0 2.25 2.25h1.25v1.5h-1.25a3.75 3.75 0 0 1-3.75-3.75zm12.25-2.25h-0.75v-1.5h0.75a3.75 3.75 0 0 1 3.75 3.75v5a3.75 3.75 0 0 1-3.75 3.75h-2.44l1.018 1.018a0.75 0.75 0 1 1-1.06 1.06l-2.829-2.828 2.829-2.828a0.75 0.75 0 1 1 1.06 1.06l-1.017 1.018h2.439a2.25 2.25 0 0 0 2.25-2.25v-5a2.25 2.25 0 0 0-2.25-2.25z"/>
 <path d="m9.12 8v-7h-1.333c-0.128 0.72-0.76 1.293-1.787 1.313v1.047h1.57v4.64z"/>
</svg>
